<svg width="25" height="24" viewBox="0 0 25 24" fill="none" xmlns="http://www.w3.org/2000/svg">
<path d="M16.2944 10.5V6C16.2944 5.00544 15.8993 4.05161 15.1961 3.34835C14.4928 2.64509 13.539 2.25 12.5444 2.25C11.5499 2.25 10.596 2.64509 9.89277 3.34835C9.18951 4.05161 8.79442 5.00544 8.79442 6V10.5M20.1504 8.507L21.4134 20.507C21.4834 21.172 20.9634 21.75 20.2944 21.75H4.79442C4.63663 21.7502 4.48056 21.7171 4.33637 21.6531C4.19217 21.589 4.06307 21.4953 3.95744 21.3781C3.85182 21.2608 3.77203 21.1227 3.72327 20.9726C3.67451 20.8226 3.65787 20.6639 3.67442 20.507L4.93842 8.507C4.96757 8.23056 5.09804 7.9747 5.30467 7.78876C5.51129 7.60281 5.77944 7.49995 6.05742 7.5H19.0314C19.6074 7.5 20.0904 7.935 20.1504 8.507ZM9.16942 10.5C9.16942 10.5995 9.12991 10.6948 9.05958 10.7652C8.98926 10.8355 8.89387 10.875 8.79442 10.875C8.69496 10.875 8.59958 10.8355 8.52925 10.7652C8.45893 10.6948 8.41942 10.5995 8.41942 10.5C8.41942 10.4005 8.45893 10.3052 8.52925 10.2348C8.59958 10.1645 8.69496 10.125 8.79442 10.125C8.89387 10.125 8.98926 10.1645 9.05958 10.2348C9.12991 10.3052 9.16942 10.4005 9.16942 10.5ZM16.6694 10.5C16.6694 10.5995 16.6299 10.6948 16.5596 10.7652C16.4893 10.8355 16.3939 10.875 16.2944 10.875C16.195 10.875 16.0996 10.8355 16.0293 10.7652C15.9589 10.6948 15.9194 10.5995 15.9194 10.5C15.9194 10.4005 15.9589 10.3052 16.0293 10.2348C16.0996 10.1645 16.195 10.125 16.2944 10.125C16.3939 10.125 16.4893 10.1645 16.5596 10.2348C16.6299 10.3052 16.6694 10.4005 16.6694 10.5Z" stroke="white" stroke-width="1.5" stroke-linecap="round" stroke-linejoin="round"/>
</svg>
