<svg width="98" height="19" viewBox="0 0 98 19" fill="none" xmlns="http://www.w3.org/2000/svg">
<path d="M16.848 18H13.776L11.904 12.768H4.944L3.072 18H0L6.744 0.407999H10.104L16.848 18ZM8.424 3.024L5.784 10.44H11.064L8.424 3.024ZM21.6036 0.407999V15.672H33.4356V18H18.9876V0.407999H21.6036ZM48.3711 18.288C46.2271 18.288 44.5311 17.92 43.2831 17.184C42.0511 16.432 41.1631 15.528 40.6191 14.472L42.8031 12.816C43.8111 14.864 45.6991 15.888 48.4671 15.888C49.5711 15.888 50.5071 15.688 51.2751 15.288C52.0591 14.888 52.4511 14.248 52.4511 13.368C52.4511 12.712 52.2271 12.2 51.7791 11.832C51.3471 11.464 50.6751 11.136 49.7631 10.848C48.9311 10.592 48.4111 10.44 48.2031 10.392C46.8271 9.992 45.8351 9.68 45.2271 9.456C43.6911 8.88 42.6751 8.216 42.1791 7.464C41.6831 6.712 41.4351 5.928 41.4351 5.112C41.4351 4.44 41.6431 3.72 42.0591 2.952C42.4911 2.168 43.1631 1.504 44.0751 0.959999C45.0031 0.399999 46.1631 0.119998 47.5551 0.119998C49.1071 0.119998 50.4031 0.327999 51.4431 0.743999C52.4831 1.16 53.4911 1.864 54.4671 2.856L52.0431 4.464C51.0671 3.2 49.6431 2.568 47.7711 2.568C46.8111 2.568 46.0671 2.712 45.5391 3C45.0271 3.288 44.6831 3.608 44.5071 3.96C44.3471 4.312 44.2671 4.624 44.2671 4.896C44.2671 5.472 44.4911 5.936 44.9391 6.288C45.3871 6.64 46.0511 6.96 46.9311 7.248C47.0111 7.28 47.6271 7.464 48.7791 7.8C49.4991 7.992 50.2431 8.208 51.0111 8.448C52.6911 9.008 53.8111 9.72 54.3711 10.584C54.9471 11.448 55.2351 12.28 55.2351 13.08C55.2351 13.944 55.0271 14.768 54.6111 15.552C54.2111 16.336 53.4991 16.992 52.4751 17.52C51.4671 18.032 50.0991 18.288 48.3711 18.288ZM73.434 18H70.362L64.434 9.816L61.194 13.248V18H58.578V0.407999H61.194V9.816L70.002 0.407999H73.29L66.186 7.968L73.434 18ZM78.3737 18H75.7577V0.407999H78.3737V18ZM95.1439 13.944V0.407999H97.6399V18H95.0719L85.2799 4.464V18H82.7599V0.407999H85.3999L95.1439 13.944Z" fill="#222222"/>
</svg>
